<mxfile host="app.diagrams.net" agent="Mozilla/5.0 (Windows NT 10.0; Win64; x64; rv:141.0) Gecko/20100101 Firefox/141.0" version="28.0.7">
  <diagram name="Página-1" id="TMDoCD8hCcpHIJEySzZF">
    <mxGraphModel dx="1342" dy="749" grid="1" gridSize="10" guides="1" tooltips="1" connect="1" arrows="1" fold="1" page="1" pageScale="1" pageWidth="827" pageHeight="1169" math="0" shadow="0">
      <root>
        <mxCell id="0" />
        <mxCell id="1" parent="0" />
        <mxCell id="el_gUo1GqOzXq_fRGKN8-19" style="edgeStyle=orthogonalEdgeStyle;rounded=0;orthogonalLoop=1;jettySize=auto;html=1;endArrow=block;endFill=0;" edge="1" parent="1" source="el_gUo1GqOzXq_fRGKN8-3" target="el_gUo1GqOzXq_fRGKN8-4">
          <mxGeometry relative="1" as="geometry" />
        </mxCell>
        <mxCell id="el_gUo1GqOzXq_fRGKN8-3" value="«abstract»&lt;br&gt;&lt;b&gt;Animal&lt;/b&gt;" style="html=1;whiteSpace=wrap;" vertex="1" parent="1">
          <mxGeometry x="529" y="140" width="110" height="50" as="geometry" />
        </mxCell>
        <mxCell id="el_gUo1GqOzXq_fRGKN8-4" value="«interface»&lt;br&gt;&lt;b&gt;Instincts&lt;/b&gt;" style="html=1;whiteSpace=wrap;" vertex="1" parent="1">
          <mxGeometry x="660" y="70" width="110" height="50" as="geometry" />
        </mxCell>
        <mxCell id="el_gUo1GqOzXq_fRGKN8-17" style="edgeStyle=orthogonalEdgeStyle;rounded=0;orthogonalLoop=1;jettySize=auto;html=1;endArrow=block;endFill=0;" edge="1" parent="1" source="el_gUo1GqOzXq_fRGKN8-7" target="el_gUo1GqOzXq_fRGKN8-3">
          <mxGeometry relative="1" as="geometry" />
        </mxCell>
        <mxCell id="el_gUo1GqOzXq_fRGKN8-7" value="«abstract»&lt;br&gt;&lt;b&gt;Carnivore&lt;/b&gt;" style="html=1;whiteSpace=wrap;" vertex="1" parent="1">
          <mxGeometry x="213" y="250" width="110" height="50" as="geometry" />
        </mxCell>
        <mxCell id="el_gUo1GqOzXq_fRGKN8-18" style="edgeStyle=orthogonalEdgeStyle;rounded=0;orthogonalLoop=1;jettySize=auto;html=1;endArrow=block;endFill=0;" edge="1" parent="1" source="el_gUo1GqOzXq_fRGKN8-8" target="el_gUo1GqOzXq_fRGKN8-3">
          <mxGeometry relative="1" as="geometry" />
        </mxCell>
        <mxCell id="el_gUo1GqOzXq_fRGKN8-8" value="«abstract»&lt;br&gt;&lt;b&gt;Herbivore&lt;/b&gt;" style="html=1;whiteSpace=wrap;" vertex="1" parent="1">
          <mxGeometry x="887" y="250" width="110" height="50" as="geometry" />
        </mxCell>
        <mxCell id="el_gUo1GqOzXq_fRGKN8-25" style="edgeStyle=orthogonalEdgeStyle;rounded=0;orthogonalLoop=1;jettySize=auto;html=1;endArrow=block;endFill=0;" edge="1" parent="1" source="el_gUo1GqOzXq_fRGKN8-10" target="el_gUo1GqOzXq_fRGKN8-7">
          <mxGeometry relative="1" as="geometry" />
        </mxCell>
        <mxCell id="el_gUo1GqOzXq_fRGKN8-10" value="«abstract»&lt;br&gt;&lt;b&gt;BigTeropod&lt;/b&gt;" style="html=1;whiteSpace=wrap;" vertex="1" parent="1">
          <mxGeometry x="103" y="420" width="110" height="50" as="geometry" />
        </mxCell>
        <mxCell id="el_gUo1GqOzXq_fRGKN8-26" style="edgeStyle=orthogonalEdgeStyle;rounded=0;orthogonalLoop=1;jettySize=auto;html=1;endArrow=block;endFill=0;" edge="1" parent="1" source="el_gUo1GqOzXq_fRGKN8-11" target="el_gUo1GqOzXq_fRGKN8-7">
          <mxGeometry relative="1" as="geometry" />
        </mxCell>
        <mxCell id="el_gUo1GqOzXq_fRGKN8-11" value="«abstract»&lt;br&gt;&lt;b&gt;SmallTeropod&lt;/b&gt;" style="html=1;whiteSpace=wrap;" vertex="1" parent="1">
          <mxGeometry x="323" y="420" width="110" height="50" as="geometry" />
        </mxCell>
        <mxCell id="el_gUo1GqOzXq_fRGKN8-27" style="edgeStyle=orthogonalEdgeStyle;rounded=0;orthogonalLoop=1;jettySize=auto;html=1;endArrow=block;endFill=0;" edge="1" parent="1" source="el_gUo1GqOzXq_fRGKN8-13" target="el_gUo1GqOzXq_fRGKN8-8">
          <mxGeometry relative="1" as="geometry">
            <Array as="points">
              <mxPoint x="694" y="360" />
              <mxPoint x="942" y="360" />
            </Array>
          </mxGeometry>
        </mxCell>
        <mxCell id="el_gUo1GqOzXq_fRGKN8-13" value="«abstract»&lt;br&gt;&lt;b&gt;Ornitopod&lt;/b&gt;" style="html=1;whiteSpace=wrap;" vertex="1" parent="1">
          <mxGeometry x="631.5" y="420" width="110" height="50" as="geometry" />
        </mxCell>
        <mxCell id="el_gUo1GqOzXq_fRGKN8-29" style="edgeStyle=orthogonalEdgeStyle;rounded=0;orthogonalLoop=1;jettySize=auto;html=1;endArrow=block;endFill=0;" edge="1" parent="1" source="el_gUo1GqOzXq_fRGKN8-14" target="el_gUo1GqOzXq_fRGKN8-8">
          <mxGeometry relative="1" as="geometry" />
        </mxCell>
        <mxCell id="el_gUo1GqOzXq_fRGKN8-14" value="«abstract»&lt;br&gt;&lt;b&gt;Thyreophora&lt;/b&gt;" style="html=1;whiteSpace=wrap;" vertex="1" parent="1">
          <mxGeometry x="972.5" y="420" width="110" height="50" as="geometry" />
        </mxCell>
        <mxCell id="el_gUo1GqOzXq_fRGKN8-28" style="edgeStyle=orthogonalEdgeStyle;rounded=0;orthogonalLoop=1;jettySize=auto;html=1;endArrow=block;endFill=0;" edge="1" parent="1" source="el_gUo1GqOzXq_fRGKN8-15" target="el_gUo1GqOzXq_fRGKN8-8">
          <mxGeometry relative="1" as="geometry" />
        </mxCell>
        <mxCell id="el_gUo1GqOzXq_fRGKN8-15" value="«abstract»&lt;br&gt;&lt;b&gt;Marginocephalia&lt;/b&gt;" style="html=1;whiteSpace=wrap;" vertex="1" parent="1">
          <mxGeometry x="802.5" y="420" width="110" height="50" as="geometry" />
        </mxCell>
        <mxCell id="el_gUo1GqOzXq_fRGKN8-30" style="edgeStyle=orthogonalEdgeStyle;rounded=0;orthogonalLoop=1;jettySize=auto;html=1;endArrow=block;endFill=0;" edge="1" parent="1" source="el_gUo1GqOzXq_fRGKN8-20" target="el_gUo1GqOzXq_fRGKN8-8">
          <mxGeometry relative="1" as="geometry">
            <Array as="points">
              <mxPoint x="1205" y="360" />
              <mxPoint x="942" y="360" />
            </Array>
          </mxGeometry>
        </mxCell>
        <mxCell id="el_gUo1GqOzXq_fRGKN8-20" value="«abstract»&lt;br&gt;&lt;b&gt;Sauropod&lt;/b&gt;" style="html=1;whiteSpace=wrap;" vertex="1" parent="1">
          <mxGeometry x="1142.5" y="420" width="110" height="50" as="geometry" />
        </mxCell>
        <mxCell id="el_gUo1GqOzXq_fRGKN8-33" style="edgeStyle=orthogonalEdgeStyle;rounded=0;orthogonalLoop=1;jettySize=auto;html=1;endArrow=block;endFill=0;" edge="1" parent="1" source="el_gUo1GqOzXq_fRGKN8-32" target="el_gUo1GqOzXq_fRGKN8-15">
          <mxGeometry relative="1" as="geometry" />
        </mxCell>
        <mxCell id="el_gUo1GqOzXq_fRGKN8-32" value="&lt;b&gt;Triceratops&lt;/b&gt;" style="html=1;whiteSpace=wrap;" vertex="1" parent="1">
          <mxGeometry x="803" y="540" width="110" height="50" as="geometry" />
        </mxCell>
        <mxCell id="el_gUo1GqOzXq_fRGKN8-35" style="edgeStyle=orthogonalEdgeStyle;rounded=0;orthogonalLoop=1;jettySize=auto;html=1;endArrow=block;endFill=0;" edge="1" parent="1" source="el_gUo1GqOzXq_fRGKN8-34" target="el_gUo1GqOzXq_fRGKN8-14">
          <mxGeometry relative="1" as="geometry" />
        </mxCell>
        <mxCell id="el_gUo1GqOzXq_fRGKN8-34" value="&lt;b&gt;Stegosaurus&lt;/b&gt;" style="html=1;whiteSpace=wrap;" vertex="1" parent="1">
          <mxGeometry x="973" y="540" width="110" height="50" as="geometry" />
        </mxCell>
        <mxCell id="el_gUo1GqOzXq_fRGKN8-37" style="edgeStyle=orthogonalEdgeStyle;rounded=0;orthogonalLoop=1;jettySize=auto;html=1;endArrow=block;endFill=0;" edge="1" parent="1" source="el_gUo1GqOzXq_fRGKN8-36" target="el_gUo1GqOzXq_fRGKN8-20">
          <mxGeometry relative="1" as="geometry" />
        </mxCell>
        <mxCell id="el_gUo1GqOzXq_fRGKN8-36" value="&lt;b&gt;Brachiosaurus&lt;/b&gt;" style="html=1;whiteSpace=wrap;" vertex="1" parent="1">
          <mxGeometry x="1143" y="540" width="110" height="50" as="geometry" />
        </mxCell>
        <mxCell id="el_gUo1GqOzXq_fRGKN8-45" style="edgeStyle=orthogonalEdgeStyle;rounded=0;orthogonalLoop=1;jettySize=auto;html=1;endArrow=block;endFill=0;" edge="1" parent="1" source="el_gUo1GqOzXq_fRGKN8-38" target="el_gUo1GqOzXq_fRGKN8-13">
          <mxGeometry relative="1" as="geometry" />
        </mxCell>
        <mxCell id="el_gUo1GqOzXq_fRGKN8-38" value="&lt;b&gt;Maiasaurus&lt;/b&gt;" style="html=1;whiteSpace=wrap;" vertex="1" parent="1">
          <mxGeometry x="550" y="630" width="110" height="50" as="geometry" />
        </mxCell>
        <mxCell id="el_gUo1GqOzXq_fRGKN8-44" style="edgeStyle=orthogonalEdgeStyle;rounded=0;orthogonalLoop=1;jettySize=auto;html=1;endArrow=block;endFill=0;" edge="1" parent="1" source="el_gUo1GqOzXq_fRGKN8-39" target="el_gUo1GqOzXq_fRGKN8-13">
          <mxGeometry relative="1" as="geometry" />
        </mxCell>
        <mxCell id="el_gUo1GqOzXq_fRGKN8-39" value="&lt;b&gt;Parasaurolophus&lt;/b&gt;" style="html=1;whiteSpace=wrap;" vertex="1" parent="1">
          <mxGeometry x="710" y="630" width="110" height="50" as="geometry" />
        </mxCell>
        <mxCell id="el_gUo1GqOzXq_fRGKN8-47" style="edgeStyle=orthogonalEdgeStyle;rounded=0;orthogonalLoop=1;jettySize=auto;html=1;endArrow=block;endFill=0;" edge="1" parent="1" source="el_gUo1GqOzXq_fRGKN8-46" target="el_gUo1GqOzXq_fRGKN8-10">
          <mxGeometry relative="1" as="geometry" />
        </mxCell>
        <mxCell id="el_gUo1GqOzXq_fRGKN8-46" value="&lt;b&gt;Tyrannosaurus Rex&lt;/b&gt;" style="html=1;whiteSpace=wrap;" vertex="1" parent="1">
          <mxGeometry x="103" y="630" width="110" height="50" as="geometry" />
        </mxCell>
        <mxCell id="el_gUo1GqOzXq_fRGKN8-51" style="edgeStyle=orthogonalEdgeStyle;rounded=0;orthogonalLoop=1;jettySize=auto;html=1;endArrow=block;endFill=0;" edge="1" parent="1" source="el_gUo1GqOzXq_fRGKN8-49" target="el_gUo1GqOzXq_fRGKN8-11">
          <mxGeometry relative="1" as="geometry" />
        </mxCell>
        <mxCell id="el_gUo1GqOzXq_fRGKN8-49" value="&lt;b&gt;Velociraptor&lt;/b&gt;" style="html=1;whiteSpace=wrap;" vertex="1" parent="1">
          <mxGeometry x="250" y="540" width="110" height="50" as="geometry" />
        </mxCell>
        <mxCell id="el_gUo1GqOzXq_fRGKN8-52" style="edgeStyle=orthogonalEdgeStyle;rounded=0;orthogonalLoop=1;jettySize=auto;html=1;endArrow=block;endFill=0;" edge="1" parent="1" source="el_gUo1GqOzXq_fRGKN8-50" target="el_gUo1GqOzXq_fRGKN8-11">
          <mxGeometry relative="1" as="geometry" />
        </mxCell>
        <mxCell id="el_gUo1GqOzXq_fRGKN8-50" value="&lt;b&gt;Dilophosaurus&lt;/b&gt;" style="html=1;whiteSpace=wrap;" vertex="1" parent="1">
          <mxGeometry x="400" y="540" width="110" height="50" as="geometry" />
        </mxCell>
      </root>
    </mxGraphModel>
  </diagram>
</mxfile>
